<?xml version="1.0" encoding="utf-8"?>
<!-- Generator: Adobe Illustrator 19.2.0, SVG Export Plug-In . SVG Version: 6.00 Build 0)  -->
<svg version="1.1" id="Ebene_1" xmlns="http://www.w3.org/2000/svg" xmlns:xlink="http://www.w3.org/1999/xlink" x="0px" y="0px"
	 viewBox="0 0 55 23" style="enable-background:new 0 0 55 23;" xml:space="preserve">
<style type="text/css">
	.st2{fill:#444444;}
</style>
<g>
	<g>
		<ellipse class="st2" cx="17.4" cy="7.4" rx="1.8" ry="1.8"/>
		<ellipse class="st2" cx="12.8" cy="7.3" rx="1.8" ry="1.8"/>
		<g>
			<ellipse class="st2" cx="22.1" cy="7.4" rx="1.7" ry="1.7"/>
		</g>
		<path class="st2" d="M28,8.8c-0.2-0.2-0.9-0.2-1.5-0.1c-0.8-2.3-2-4.4-2.8-4.8c-3.1-1.5-10.2-1.1-12.5-0.2c-1.2,0.4-2.3,2.6-3,5
			C7.7,8.6,6.9,8.6,6.7,8.8C6,9.7,7.2,10,7.9,10.1c-0.2,0.8-0.4,1.6-0.5,2.4c-0.3,2.3,0.4,4.7,0.5,5c0.3,0.7,0.6,1,1,1l0,0v0.7
			c0,0.5,0.3,1,0.6,1h2.1c0.3,0,0.6-0.4,0.6-1v-0.7l11,0.1v0.6c0,0.5,0.3,1,0.6,1h2.1c0.3,0,0.6-0.4,0.6-1v-0.6
			c0.5-0.1,0.6-0.4,0.9-1.1c0.2-0.5,0.6-2.3,0.3-4.5c-0.1-0.9-0.4-1.9-0.7-2.9C27.7,9.9,28.7,9.6,28,8.8z M9.5,8
			c0.6-1.8,1.1-2.9,1.8-3.2c0.9-0.4,6.2-0.9,11-0.3c0.7,0,1.4,0.4,1.5,0.7C24,5.5,26,8.9,25,9.4s-7.5,0.9-7.5,0.9l-6.8-0.4
			C10.7,9.9,8.9,9.8,9.5,8z M8.2,12.8c-0.3-0.7,0-2,0.8-1.8c0.5,0.1,1.2,0.4,1.8,0.7c0,0,1.8,2-0.1,2C8.9,13.6,8.5,13.4,8.2,12.8z
			 M12.3,16.8c-1.7,0-1.8-0.9-1.9-1.1c0-0.2,0.3-0.5,1.2-0.5c0,0,10.6,0,11.5,0s1.6,0,1.5,0.6c-0.2,0.7,0,1-2.1,1.1
			C20.4,16.9,13.4,16.8,12.3,16.8z M26.9,12.7c-0.3,0.6-0.7,0.8-2.5,0.9c-1.9,0.1-0.1-2-0.1-2c0.5-0.4,1.3-0.6,1.8-0.7
			C27,10.6,27.3,12,26.9,12.7z"/>
	</g>
	<g>
		<path class="st2" d="M40.8,16.3c0,0.3,0,0.6-0.1,0.9s-0.2,0.5-0.4,0.7s-0.5,0.4-0.8,0.5s-0.7,0.2-1.1,0.2l-2.6,0.3l-0.7-6.6
			l2.3-0.3c0.5-0.1,0.8-0.1,1.1-0.1s0.5,0.1,0.7,0.2c0.2,0.1,0.4,0.3,0.6,0.4c0.1,0.2,0.2,0.4,0.3,0.7c0,0.3,0,0.6-0.1,0.9
			c-0.1,0.3-0.3,0.5-0.6,0.6l0,0c0.4,0,0.8,0.2,1,0.4C40.6,15.5,40.8,15.9,40.8,16.3 M38.4,13.9c0-0.1-0.1-0.2-0.1-0.3
			c-0.1-0.1-0.2-0.2-0.3-0.2s-0.2,0-0.4,0c-0.1,0-0.4,0-0.7,0.1h-0.1l0.2,1.4h0.2c0.3,0,0.5-0.1,0.6-0.1s0.2-0.1,0.3-0.1
			c0.1-0.1,0.2-0.2,0.2-0.3C38.4,14.1,38.4,14,38.4,13.9 M39.1,16.5c0-0.2-0.1-0.4-0.2-0.5c-0.1-0.1-0.2-0.2-0.4-0.2
			c-0.1,0-0.2,0-0.4,0s-0.4,0-0.7,0.1h-0.3l0.2,1.6h0.1c0.4,0,0.7-0.1,0.9-0.1s0.3-0.1,0.5-0.2c0.1-0.1,0.2-0.2,0.3-0.3
			C39.1,16.8,39.1,16.6,39.1,16.5"/>
		
			<rect x="41.3" y="11.5" transform="matrix(0.9954 -9.537544e-02 9.537544e-02 0.9954 -1.2251 4.0778)" class="st2" width="1.5" height="6.7"/>
		<path class="st2" d="M47,17.3c-0.1,0.1-0.2,0.2-0.3,0.3c-0.1,0.1-0.2,0.2-0.3,0.2c-0.1,0.1-0.3,0.1-0.4,0.2
			c-0.1,0-0.3,0.1-0.5,0.1c-0.4,0-0.8-0.1-1.1-0.3c-0.3-0.3-0.5-0.6-0.5-1s0-0.7,0.1-0.9c0.1-0.2,0.3-0.4,0.6-0.6
			c0.3-0.2,0.6-0.3,1-0.4c0.4-0.1,0.8-0.2,1.2-0.2l0,0c0-0.3-0.1-0.4-0.3-0.5c-0.4-0.2-0.7-0.2-1-0.2c-0.2,0-0.4,0.1-0.6,0.2
			c-0.2,0.1-0.5,0.2-0.7,0.3h-0.1L44,13.3c0.1-0.1,0.4-0.1,0.7-0.2c0.3-0.1,0.7-0.2,1-0.2c0.8-0.1,1.5,0,1.9,0.2s0.6,0.6,0.7,1.2
			l0.3,3.3L47,17.8V17.3z M46.9,16.5l-0.1-1c-0.3,0-0.5,0.1-0.6,0.1c-0.2,0-0.3,0.1-0.5,0.2c-0.1,0.1-0.2,0.1-0.3,0.2
			c-0.1,0.1-0.1,0.2-0.1,0.4c0,0.2,0.1,0.4,0.2,0.5c0.1,0.1,0.3,0.1,0.6,0.1c0.1,0,0.3-0.1,0.4-0.1C46.7,16.8,46.8,16.7,46.9,16.5"
			/>
		<path class="st2" d="M38.1,8.9c0,0.3,0,0.6-0.1,0.9c-0.1,0.3-0.2,0.5-0.4,0.7s-0.5,0.4-0.8,0.5s-0.7,0.2-1.1,0.2L33,11.4l-0.6-6.6
			l2.3-0.2c0.5,0,0.9-0.1,1.1,0c0.3,0,0.5,0.1,0.7,0.2c0.3,0,0.5,0.2,0.6,0.4s0.2,0.4,0.2,0.7c0,0.3,0,0.6-0.2,0.9
			c-0.1,0.3-0.3,0.5-0.6,0.6l0,0c0.4,0,0.8,0.2,1,0.4C37.9,8.1,38.1,8.5,38.1,8.9 M35.7,6.4c0-0.1,0-0.2-0.1-0.3
			c-0.1-0.1-0.2-0.2-0.3-0.2s-0.2-0.1-0.4,0c-0.1,0-0.4,0-0.7,0.1h-0.1l0.1,1.4h0.2c0.3,0,0.5,0,0.6-0.1c0.1,0,0.2-0.1,0.3-0.1
			c0.1-0.1,0.2-0.2,0.2-0.3C35.7,6.7,35.8,6.5,35.7,6.4 M36.4,9c0-0.2-0.1-0.4-0.2-0.5c-0.1-0.1-0.2-0.2-0.4-0.2c-0.1,0-0.2,0-0.4,0
			s-0.4,0-0.7,0.1h-0.3l0.2,1.7h0.1c0.4,0,0.7-0.1,0.9-0.1s0.3-0.1,0.5-0.2c0.1-0.1,0.2-0.2,0.3-0.3C36.4,9.3,36.4,9.2,36.4,9"/>
		
			<rect x="38.7" y="4.1" transform="matrix(0.997 -7.747982e-02 7.747982e-02 0.997 -0.4585 3.0786)" class="st2" width="1.5" height="6.7"/>
		<path class="st2" d="M44.2,10c-0.1,0.1-0.2,0.2-0.3,0.3s-0.2,0.2-0.3,0.2c-0.1,0.1-0.3,0.1-0.4,0.2c-0.1,0-0.3,0.1-0.5,0.1
			c-0.4,0-0.8-0.1-1.1-0.3c-0.3-0.3-0.5-0.6-0.5-1.1c0-0.4,0-0.7,0.1-0.9s0.3-0.4,0.6-0.6c0.3-0.2,0.6-0.3,1-0.4s0.8-0.2,1.2-0.2
			l0,0c0-0.3-0.1-0.4-0.3-0.5s-0.5-0.1-0.9-0.1c-0.2,0-0.4,0.1-0.6,0.1C42,6.9,41.7,7,41.5,7.1h-0.1L41.3,6c0.1-0.1,0.4-0.1,0.7-0.2
			s0.7-0.1,1-0.2c0.8-0.1,1.5,0,1.9,0.3c0.4,0.2,0.6,0.7,0.7,1.2l0.3,3.3l-1.5,0.1L44.2,10z M44.2,9.2l-0.1-1
			c-0.3,0-0.5,0.1-0.6,0.1c-0.2,0-0.3,0.1-0.5,0.1c-0.1,0.1-0.2,0.1-0.3,0.2c-0.1,0.1-0.1,0.2-0.1,0.4s0.1,0.4,0.2,0.5
			c0.1,0.1,0.3,0.1,0.6,0.1c0.1,0,0.3-0.1,0.4-0.1C43.9,9.5,44.1,9.4,44.2,9.2"/>
	</g>
</g>
</svg>
