<?xml version="1.0" encoding="utf-8"?>
<!-- Generated by IcoMoon.io -->
<!DOCTYPE svg PUBLIC "-//W3C//DTD SVG 1.1//EN" "http://www.w3.org/Graphics/SVG/1.1/DTD/svg11.dtd">
<svg version="1.1" xmlns="http://www.w3.org/2000/svg" xmlns:xlink="http://www.w3.org/1999/xlink" width="32" height="32" viewBox="0 0 32 32">
<path fill="#444444" d="M8.32 13.227c0.32-0.32 0.32-0.96-0.107-1.28-0.32-0.213-0.96-0.213-1.28 0.213l-1.493 1.813c0.96-5.013 5.333-8.747 10.56-8.747 4.16 0 8 2.453 9.813 6.293 0.213 0.427 0.747 0.64 1.173 0.427s0.64-0.747 0.427-1.173c-2.027-4.587-6.507-7.467-11.413-7.467-6.187 0-11.307 4.48-12.373 10.453l-0.96-1.6c-0.213-0.427-0.853-0.533-1.28-0.32s-0.533 0.853-0.32 1.28l2.453 3.84c0.213 0.213 0.427 0.427 0.747 0.427h0.107c0.213 0 0.533-0.107 0.64-0.32l3.307-3.84z"></path>
<path fill="#444444" d="M30.293 19.52l-1.813-3.947c0-0.107-0.107-0.107-0.107-0.107s0 0 0-0.107c-0.107-0.107-0.107-0.107-0.213-0.213 0 0-0.107 0-0.107-0.107-0.107-0.107-0.107-0.107-0.213-0.107v0 0c-0.107 0-0.107-0.107-0.213-0.107h0.107c-0.107 0-0.213 0-0.213 0v0c-0.107 0-0.107 0.107-0.213 0.107 0 0 0 0-0.107 0h-0.107c-0.107 0.107-0.107 0.107-0.213 0.107v0 0 0l-2.987 3.2c-0.32 0.32-0.32 0.853 0 1.28 0.32 0.32 0.853 0.32 1.28 0l1.28-1.28c-1.173 4.693-5.333 8.213-10.453 8.213-4.16 0-7.787-2.24-9.6-5.973-0.213-0.427-0.747-0.64-1.173-0.427s-0.64 0.747-0.427 1.173c2.133 4.267 6.4 6.933 11.2 6.933 5.76 0 10.667-3.947 12.053-9.28l0.533 1.173c0.107 0.32 0.427 0.533 0.853 0.533 0.107 0 0.213 0 0.32-0.107 0.533 0 0.64-0.533 0.533-0.96z"></path>
</svg>
