<?xml version="1.0" encoding="utf-8"?>
<!-- Generated by IcoMoon.io -->
<!DOCTYPE svg PUBLIC "-//W3C//DTD SVG 1.1//EN" "http://www.w3.org/Graphics/SVG/1.1/DTD/svg11.dtd">
<svg version="1.1" xmlns="http://www.w3.org/2000/svg" xmlns:xlink="http://www.w3.org/1999/xlink" width="32" height="32" viewBox="0 0 32 32">
<path fill="#444444" d="M15.893 1.6c-7.787 0-14.187 6.4-14.187 14.187s6.4 14.187 14.187 14.187 14.187-6.4 14.187-14.187-6.507-14.187-14.187-14.187zM15.893 28.16c-6.72 0-12.373-5.547-12.373-12.373s5.547-12.373 12.373-12.373 12.373 5.547 12.373 12.373-5.653 12.373-12.373 12.373z"></path>
<path fill="#444444" d="M20.693 13.333l-4.053 2.027v-7.68c0-0.427-0.427-0.853-0.853-0.853s-0.853 0.427-0.853 0.853v9.067c0 0.32 0.107 0.64 0.427 0.853 0.107 0.107 0.32 0.107 0.427 0.107s0.32 0 0.427-0.107l5.333-2.773c0.427-0.213 0.64-0.853 0.427-1.173-0.213-0.427-0.747-0.533-1.28-0.32z"></path>
</svg>
