<?xml version="1.0" encoding="utf-8"?>
<!-- Generated by IcoMoon.io -->
<!DOCTYPE svg PUBLIC "-//W3C//DTD SVG 1.1//EN" "http://www.w3.org/Graphics/SVG/1.1/DTD/svg11.dtd">
<svg version="1.1" xmlns="http://www.w3.org/2000/svg" xmlns:xlink="http://www.w3.org/1999/xlink" width="32" height="32" viewBox="0 0 32 32">
<path fill="#ffffff" d="M21.8 25.6h-3.1v-12.2c0-1.2-1-2.2-2.2-2.2-0.1 0-0.2 0-0.2 0-0.1 0-0.2 0-0.2 0h-3.7c-1.2 0-2.2 1-2.2 2.2s1 2.2 2.2 2.2h2v10.1h-4.5c-1.2 0-2.2 1-2.2 2.2s1 2.2 2.2 2.2h12c1.2 0 2.2-1 2.2-2.2-0.1-1.3-1.1-2.3-2.3-2.3z"></path>
<path fill="#ffffff" d="M16.2 8.4c1.7 0 3.2-1.4 3.2-3.2s-1.4-3.1-3.2-3.1-3.2 1.4-3.2 3.2 1.5 3.1 3.2 3.1z"></path>
</svg>
