<?xml version="1.0" encoding="utf-8"?>
<!-- Generator: Adobe Illustrator 18.1.1, SVG Export Plug-In . SVG Version: 6.00 Build 0)  -->
<svg version="1.1" id="Layer_1" xmlns="http://www.w3.org/2000/svg" xmlns:xlink="http://www.w3.org/1999/xlink" x="0px" y="0px"
	 viewBox="0 0 29.5 110" enable-background="new 0 0 29.5 110" xml:space="preserve">
<g>
	<path fill="#FFFED3" d="M27.8,53.5L0.2,0.4v109.2l27.5-52.9c0.3-0.4,0.5-0.9,0.5-1.6C28.2,54.4,28.1,53.9,27.8,53.5z"/>
	<path fill="#FFFED3" d="M28.2,53.3L0.6-0.1C0.3,0,0,0-0.2,0v110c0.3,0,0.5,0,0.8,0.1L28.1,57c0.4-0.5,0.6-1.2,0.6-1.9
		C28.7,54.3,28.5,53.7,28.2,53.3z M27.3,56.5l-26.5,51V2.4l26.6,51.4c0.2,0.3,0.3,0.7,0.3,1.2C27.7,55.6,27.6,56,27.3,56.5z"/>
</g>
<path fill="#FFEA65" d="M28.2,53.3L0.6-0.1c-0.1,0-0.2,0-0.3,0l-0.7,0.4l27.7,53.4c0.2,0.3,0.3,0.8,0.3,1.3c0,0.5-0.1,1-0.4,1.4
	L-0.4,110l0,0c0.4,0,0.7,0,1.1,0.1L28.1,57c0.4-0.5,0.6-1.2,0.6-1.9C28.7,54.3,28.5,53.7,28.2,53.3z"/>
</svg>
