<svg xmlns="http://www.w3.org/2000/svg" viewBox="0 0 84.76 84.76">
  <style type="text/css">.a{fill:#415861;}.b{fill:none;}</style>
  <g>
    <path class="a" d="M19.91,24.35a12.71,12.71,0,0,1-3.68,1.46,0.51,0.51,0,0,0-.38.31l-2.45,5-2.53-5.06a1.15,1.15,0,0,0-.32-0.33A12.55,12.55,0,1,1,25.81,11a6.39,6.39,0,0,1,.92-0.61A13.55,13.55,0,1,0,10.11,26.62L13,32.52a0.52,0.52,0,0,0,.46.31h0a0.42,0.42,0,0,0,.46-0.31l2.76-5.74a16.86,16.86,0,0,0,3.45-1.3C20.07,25.12,20,24.73,19.91,24.35Z" transform="translate(18.33 21.35)"/>
    <path class="a" d="M20.22,19.68L15.7,5.82H10.49L5.82,20.22H10l0.77-2.7h4.67l0.69,2.68h4A1.3,1.3,0,0,1,20.22,19.68ZM11.64,14.4c0.54-2.3,1-3.75,1.07-4.6a8,8,0,0,1,.38-1.69c0.15,0.38.23,0.92,0.46,1.76A18.2,18.2,0,0,1,14,11.94l0.61,2.37h-3v0.08h0Z" transform="translate(18.33 21.35)"/>
    <path class="a" d="M48.1,22.52A13.63,13.63,0,1,0,31.25,35.76L32,37.29,34.39,42l2.3-4.67,0.76-1.45A13.83,13.83,0,0,0,48.1,22.52ZM29.33,30V14.7h5.36a9,9,0,0,1,4.6.92,3.22,3.22,0,0,1,1.53,2.9,3.65,3.65,0,0,1-.69,2.22,3.06,3.06,0,0,1-1.69,1.15V22a3.94,3.94,0,0,1,2.11,1.23,3.57,3.57,0,0,1,.69,2.3,5,5,0,0,1-1.69,3.29,7.13,7.13,0,0,1-4.29,1.15h-6V30h0.07Z" transform="translate(18.33 21.35)"/>
    <path class="a" d="M36.84,25.27a1.38,1.38,0,0,0-.54-1.15,2.63,2.63,0,0,0-1.53-.38H33.39V27h1.46C36.23,26.88,36.84,26.34,36.84,25.27Z" transform="translate(18.33 21.35)"/>
    <path class="a" d="M36.07,20.29a1.29,1.29,0,0,0,.48-1.07c0-.84-0.69-1.3-2-1.3H33.39V20.6h1.23A2.42,2.42,0,0,0,36.07,20.29Z" transform="translate(18.33 21.35)"/>
    <rect class="b" width="84.76" height="84.76"/>
  </g>
</svg>
