<svg xmlns="http://www.w3.org/2000/svg" xmlns:xlink="http://www.w3.org/1999/xlink" viewBox="-549 385.9 93 71">
  <style type="text/css">.a{fill:#415861;}</style>
  <g>
    <path class="a" d="M-507.9,426.4c-1.5,0.9-3.1,1.5-4.8,1.9c-0.2,0-0.4,0.2-0.5,0.4l-3.2,6.5l-3.3-6.6c-0.1-0.2-0.3-0.3-0.4-0.4c-7.4-1.8-12.5-8.3-12.5-15.9c0-9,7.3-16.4,16.4-16.4c7.9,0,14.5,5.6,16,13.1c0.4-0.3,0.8-0.6,1.2-0.8c-1.9-7.8-8.9-13.6-17.2-13.6c-9.8,0-17.7,8-17.7,17.7c0,8.1,5.4,15.1,13.2,17.1l3.8,7.6c0.1,0.2,0.3,0.4,0.6,0.4l0,0c0.3,0,0.5-0.1,0.6-0.4l3.6-7.5c1.6-0.4,3.1-1,4.5-1.7C-507.7,427.4-507.8,426.9-507.9,426.4z"/>
    <path class="a" d="M-507.5,420.3l-5.9-18.1h-6.8l-6.1,18.8h5.5l1-3.5h6.1l0.9,3.5h5.2C-507.6,420.8-507.6,420.5-507.5,420.3zM-518.7,413.4c0.7-3,1.3-4.9,1.4-6c0.2-1,0.4-1.8,0.5-2.2c0.2,0.5,0.3,1.2,0.6,2.3c0.2,1.1,0.5,2,0.6,2.7l0.8,3.1h-3.9V413.4z"/>
    <path class="a" d="M-471.1,424c0.1-9.8-7.9-17.8-17.8-17.8c-9.8,0-17.8,8-17.8,17.8c0,8.2,5.5,15.3,13.6,17.3l1,2l3.1,6.2l3-6.1l1-1.9C-476.9,439.6-471.1,432.3-471.1,424z M-495.6,433.8v-20h7c2.7,0,4.7,0.4,6,1.2c1.3,0.8,2,2.1,2,3.8c0,1.1-0.3,2.1-0.9,2.9s-1.4,1.3-2.2,1.5v0.1c1.2,0.3,2.1,0.9,2.7,1.6c0.6,0.8,0.9,1.7,0.9,3c-0.2,1.8-0.9,3.2-2.1,4.3c-1.4,1-3.2,1.5-5.6,1.5h-7.8V433.8z"/>
    <path class="a" d="M-485.8,427.6c0-0.7-0.3-1.2-0.7-1.5c-0.4-0.3-1.1-0.5-2-0.5h-1.8v4.2h1.9C-486.6,429.7-485.8,429-485.8,427.6z"/>
    <path class="a" d="M-486.8,421.1c0.4-0.3,0.6-0.8,0.6-1.4c0-1.1-0.9-1.7-2.6-1.7h-1.5v3.5h1.6C-487.8,421.5-487.2,421.4-486.8,421.1z"/>
  </g>
</svg>
