<svg xmlns="http://www.w3.org/2000/svg" viewBox="-15.4 -11.5 215 52.5">
  <style type="text/css">path{fill:white}</style>
  <g>
    <path d="M-0.9,6.8h-4.1v14.5h-6.7V6.8h-2.6V3.5l2.7-1.6V1.5c0-2.6,0.5-4.4,1.6-5.5S-7.3-5.7-5-5.7c0.9,0,1.7,0.1,2.6,0.2c0.8,0.1,1.7,0.4,2.8,0.7l-1.4,4.3C-2-0.7-2.8-0.8-3.6-0.8c-0.5,0-0.9,0.1-1.1,0.5C-4.9,0-5,0.5-5,1.2v0.5h4.1L-0.9,6.8L-0.9,6.8z"/>
    <path d="M12.1,1.4c0.6,0,1.1,0.1,1.6,0.1l0.4,0.1l-0.6,6.3c-0.5-0.1-1.3-0.2-2.3-0.2C9.8,7.7,8.7,8,8,8.7s-1,1.6-1,2.9v9.6H0.3V1.7h5l1.1,3.1h0.3C7.3,3.7,8,3,9.1,2.3C10,1.7,11,1.4,12.1,1.4z"/>
    <path d="M34,11.4c0,3.2-0.9,5.7-2.6,7.4c-1.7,1.8-4.1,2.7-7.2,2.7c-3,0-5.3-0.9-7-2.8c-1.8-1.8-2.6-4.3-2.6-7.4c0-3.2,0.9-5.7,2.6-7.4c1.7-1.8,4.1-2.6,7.2-2.6c1.9,0,3.6,0.4,5.1,1.2c1.4,0.8,2.6,2,3.4,3.5C33.6,7.6,34,9.4,34,11.4z M21.4,11.4c0,1.6,0.2,3,0.7,3.8c0.5,0.9,1.2,1.3,2.2,1.3c1.1,0,1.8-0.5,2.2-1.3c0.5-0.9,0.7-2.2,0.7-3.8S27,8.5,26.5,7.7c-0.5-0.9-1.2-1.2-2.2-1.2c-1.1,0-1.8,0.4-2.2,1.2C21.6,8.5,21.4,9.7,21.4,11.4z"/>
    <path d="M60.3,21.2V10.6c0-1.3-0.2-2.3-0.5-3s-0.9-1-1.7-1c-1.1,0-1.8,0.5-2.3,1.3c-0.5,0.9-0.7,2.2-0.7,4.1v9.1h-6.8V10.6c0-1.3-0.2-2.3-0.5-3s-0.9-1-1.6-1c-1.1,0-1.8,0.5-2.3,1.4c-0.5,0.9-0.7,2.5-0.7,4.6v8.5h-6.6V1.7h5.1l0.9,2.4h0.4c0.5-0.9,1.2-1.6,2.2-2c1-0.5,2.1-0.7,3.4-0.7c2.8,0,4.8,0.9,5.9,2.6h0.5c0.5-0.8,1.3-1.4,2.3-1.9c1-0.5,2-0.7,3.2-0.7c2.3,0,4,0.6,5.1,1.8c1.1,1.2,1.6,3,1.6,5.4v12.7H60.3z"/>
    <path d="M180.6,12.1c-0.5-0.4-1.3-0.6-2.3-0.6h-2.1v4.9h2.2c2,0,3-0.9,3-2.5C181.4,13.1,181.1,12.5,180.6,12.1z"/>
    <path d="M180.2,6.3c0.5-0.4,0.7-0.9,0.7-1.6c0-1.3-1-2-3-2h-1.8v4.1h1.9C179,6.8,179.7,6.7,180.2,6.3z"/>
    <path d="M177.8-11c-11.4,0-20.7,9.3-20.7,20.7c0,9.6,6.4,17.8,15.8,20.1l4.8,9.5l4.6-9.4c9.5-2,16.2-10.5,16.2-20.2C198.6-1.7,189.3-11,177.8-11z M185.5,19.4c-1.6,1.2-3.7,1.8-6.5,1.8h-9.1V-2.1h8.2c3.2,0,5.5,0.5,7,1.4c1.5,0.9,2.3,2.4,2.3,4.4c0,1.3-0.3,2.4-1,3.4c-0.7,0.9-1.6,1.5-2.6,1.8v0.1c1.4,0.4,2.5,1.1,3.2,1.9c0.7,0.9,1,2,1,3.5C187.8,16.5,187,18.1,185.5,19.4z"/>
    <path d="M127.2,16.2c0.9,0,2-0.2,3.2-0.7v4.9c-0.9,0.4-1.8,0.7-2.6,0.9c-0.8,0.2-1.8,0.3-2.9,0.3c-2.2,0-3.9-0.5-4.9-1.6c-1-1.1-1.5-2.8-1.5-5.1V6.8h-2.4V4l3-2.1l1.7-4.1h4.4v3.9h4.8v5.1h-4.8v7.6C125.4,15.6,126,16.2,127.2,16.2z"/>
    <path d="M151,11.4c0,3.2-0.9,5.7-2.6,7.4c-1.7,1.8-4.1,2.7-7.2,2.7c-3,0-5.3-0.9-7-2.8c-1.7-1.8-2.6-4.3-2.6-7.4c0-3.2,0.9-5.7,2.6-7.4s4.1-2.6,7.2-2.6c1.9,0,3.6,0.4,5.1,1.2c1.4,0.8,2.6,2,3.4,3.5C150.6,7.6,151,9.4,151,11.4z M138.4,11.4c0,1.6,0.2,3,0.7,3.8c0.5,0.9,1.2,1.3,2.2,1.3c1.1,0,1.8-0.5,2.2-1.3c0.5-0.9,0.7-2.2,0.7-3.8s-0.2-2.9-0.7-3.7c-0.5-0.9-1.2-1.2-2.2-1.2c-1.1,0-1.8,0.4-2.2,1.2C138.6,8.5,138.4,9.7,138.4,11.4z"/>
    <path d="M92.1,4.5c-0.3-1.4-0.5-2.3-0.7-2.9c-0.1,0.5-0.3,1.4-0.6,2.7C90.6,5.6,89.9,8,89,11.7h4.9l-1-3.8C92.7,7,92.4,5.9,92.1,4.5z"/>
    <path d="M92-11C80.6-11,71.3-1.7,71.3,9.7c0,9.6,6.4,17.8,15.8,20.1l4.8,9.5l4.6-9.4c9.5-2,16.2-10.5,16.2-20.2C112.7-1.7,103.4-11,92-11z M96.3,21.2l-1.1-4.3h-7.6l-1.2,4.3h-6.9l7.6-23.4h8.4l7.7,23.4H96.3z"/>
  </g>
</svg>
